<svg width="195" height="37" viewBox="0 0 195 37" fill="none" xmlns="http://www.w3.org/2000/svg">
<path d="M41.6445 22.9863H44.4863C44.5514 23.5592 44.8542 24.0247 45.3945 24.3828C45.9414 24.7344 46.6087 24.9102 47.3965 24.9102C48.1777 24.9102 48.8125 24.7441 49.3008 24.4121C49.7956 24.0736 50.043 23.6439 50.043 23.123C50.043 22.6673 49.8607 22.2995 49.4961 22.0195C49.1315 21.7396 48.5228 21.5052 47.6699 21.3164L45.834 20.916C43.2493 20.3626 41.957 19.0508 41.957 16.9805C41.957 15.6914 42.4583 14.6497 43.4609 13.8555C44.4701 13.0612 45.7656 12.6641 47.3477 12.6641C48.9753 12.6641 50.2741 13.0514 51.2441 13.8262C52.2142 14.5944 52.7122 15.6198 52.7383 16.9023H49.9746C49.929 16.3099 49.6654 15.8444 49.1836 15.5059C48.7083 15.1608 48.0996 14.9883 47.3574 14.9883C46.6283 14.9883 46.0391 15.1478 45.5898 15.4668C45.1471 15.7858 44.9258 16.2057 44.9258 16.7266C44.9258 17.1562 45.1048 17.5046 45.4629 17.7715C45.8275 18.0384 46.4167 18.2663 47.2305 18.4551L48.9395 18.8164C50.3522 19.1159 51.3809 19.5846 52.0254 20.2227C52.6699 20.8542 52.9922 21.707 52.9922 22.7812C52.9922 24.1484 52.4779 25.2357 51.4492 26.043C50.4206 26.8438 49.0306 27.2441 47.2793 27.2441C45.5801 27.2441 44.2259 26.8665 43.2168 26.1113C42.2142 25.3496 41.6901 24.3079 41.6445 22.9863ZM55.3262 14.1191H58.1777V16.5312H60.1113V18.6797H58.1777V23.6895C58.1777 24.4772 58.5879 24.8711 59.4082 24.8711C59.6751 24.8711 59.9062 24.8548 60.1016 24.8223V26.9219C59.7695 27 59.3171 27.0391 58.7441 27.0391C57.5137 27.0391 56.6348 26.8177 56.1074 26.375C55.5866 25.9323 55.3262 25.1999 55.3262 24.1777V18.6797H53.8516V16.5312H55.3262V14.1191ZM65.6191 25.1055C66.2507 25.1055 66.7845 24.9232 67.2207 24.5586C67.6634 24.1875 67.8848 23.722 67.8848 23.1621V22.4004L65.6777 22.5371C65.1439 22.5762 64.7305 22.7096 64.4375 22.9375C64.151 23.1654 64.0078 23.4648 64.0078 23.8359C64.0078 24.2266 64.1543 24.5358 64.4473 24.7637C64.7402 24.9915 65.1309 25.1055 65.6191 25.1055ZM64.6816 27.166C63.6725 27.166 62.8359 26.8698 62.1719 26.2773C61.5078 25.6849 61.1758 24.9232 61.1758 23.9922C61.1758 23.0417 61.5273 22.2962 62.2305 21.7559C62.9336 21.2155 63.9395 20.9062 65.248 20.8281L67.8848 20.6719V19.9785C67.8848 19.4967 67.7253 19.1191 67.4062 18.8457C67.0938 18.5723 66.6673 18.4355 66.127 18.4355C65.6061 18.4355 65.1797 18.5527 64.8477 18.7871C64.5221 19.0215 64.3236 19.3372 64.252 19.7344H61.6445C61.6966 18.7057 62.1361 17.8789 62.9629 17.2539C63.7897 16.6224 64.8867 16.3066 66.2539 16.3066C67.5951 16.3066 68.6693 16.6257 69.4766 17.2637C70.2839 17.9017 70.6875 18.748 70.6875 19.8027V27H67.9336V25.3984H67.875C67.5885 25.9453 67.1523 26.3783 66.5664 26.6973C65.9805 27.0098 65.3522 27.166 64.6816 27.166ZM72.5332 27V16.5312H75.2871V18.416H75.3457C75.528 17.752 75.834 17.2441 76.2637 16.8926C76.6934 16.541 77.2174 16.3652 77.8359 16.3652C78.1354 16.3652 78.4056 16.401 78.6465 16.4727V18.9824C78.3796 18.8717 78.0345 18.8164 77.6113 18.8164C76.9082 18.8164 76.3613 19.0215 75.9707 19.4316C75.5801 19.8418 75.3848 20.4147 75.3848 21.1504V27H72.5332ZM80.5801 14.1191H83.4316V16.5312H85.3652V18.6797H83.4316V23.6895C83.4316 24.4772 83.8418 24.8711 84.6621 24.8711C84.929 24.8711 85.1602 24.8548 85.3555 24.8223V26.9219C85.0234 27 84.571 27.0391 83.998 27.0391C82.7676 27.0391 81.8887 26.8177 81.3613 26.375C80.8405 25.9323 80.5801 25.1999 80.5801 24.1777V18.6797H79.1055V16.5312H80.5801V14.1191ZM96.5957 16.5312V27H93.8418V25.1152H93.7832C93.2363 26.502 92.1914 27.1953 90.6484 27.1953C89.5026 27.1953 88.5879 26.847 87.9043 26.1504C87.2207 25.4473 86.8789 24.4902 86.8789 23.2793V16.5312H89.7305V22.6836C89.7305 23.3802 89.8965 23.9108 90.2285 24.2754C90.5671 24.64 91.0521 24.8223 91.6836 24.8223C92.3151 24.8223 92.8164 24.6139 93.1875 24.1973C93.5586 23.7806 93.7441 23.224 93.7441 22.5273V16.5312H96.5957ZM104.564 16.3652C105.893 16.3652 106.938 16.8438 107.699 17.8008C108.467 18.7578 108.852 20.0794 108.852 21.7656C108.852 23.4453 108.474 24.7669 107.719 25.7305C106.964 26.6875 105.928 27.166 104.613 27.166C103.865 27.166 103.204 26.9967 102.631 26.6582C102.064 26.3132 101.641 25.8411 101.361 25.2422H101.303V30.418H98.4512V16.5312H101.264V18.3574H101.322C101.609 17.7324 102.032 17.2441 102.592 16.8926C103.158 16.541 103.816 16.3652 104.564 16.3652ZM103.607 24.8711C104.317 24.8711 104.88 24.5911 105.297 24.0312C105.72 23.4714 105.932 22.7161 105.932 21.7656C105.932 20.8151 105.72 20.0599 105.297 19.5C104.88 18.9336 104.317 18.6504 103.607 18.6504C102.911 18.6504 102.351 18.9368 101.928 19.5098C101.505 20.0762 101.293 20.8281 101.293 21.7656C101.293 22.7096 101.501 23.4648 101.918 24.0312C102.341 24.5911 102.904 24.8711 103.607 24.8711ZM119.682 24.5586V27H110.57V12.9082H113.52V24.5586H119.682ZM125.229 25.1055C125.86 25.1055 126.394 24.9232 126.83 24.5586C127.273 24.1875 127.494 23.722 127.494 23.1621V22.4004L125.287 22.5371C124.753 22.5762 124.34 22.7096 124.047 22.9375C123.76 23.1654 123.617 23.4648 123.617 23.8359C123.617 24.2266 123.764 24.5358 124.057 24.7637C124.35 24.9915 124.74 25.1055 125.229 25.1055ZM124.291 27.166C123.282 27.166 122.445 26.8698 121.781 26.2773C121.117 25.6849 120.785 24.9232 120.785 23.9922C120.785 23.0417 121.137 22.2962 121.84 21.7559C122.543 21.2155 123.549 20.9062 124.857 20.8281L127.494 20.6719V19.9785C127.494 19.4967 127.335 19.1191 127.016 18.8457C126.703 18.5723 126.277 18.4355 125.736 18.4355C125.215 18.4355 124.789 18.5527 124.457 18.7871C124.132 19.0215 123.933 19.3372 123.861 19.7344H121.254C121.306 18.7057 121.745 17.8789 122.572 17.2539C123.399 16.6224 124.496 16.3066 125.863 16.3066C127.204 16.3066 128.279 16.6257 129.086 17.2637C129.893 17.9017 130.297 18.748 130.297 19.8027V27H127.543V25.3984H127.484C127.198 25.9453 126.762 26.3783 126.176 26.6973C125.59 27.0098 124.962 27.166 124.291 27.166ZM132.143 27V16.5312H134.896V18.3965H134.955C135.242 17.7324 135.658 17.2246 136.205 16.873C136.758 16.515 137.432 16.3359 138.227 16.3359C139.385 16.3359 140.281 16.681 140.912 17.3711C141.544 18.0612 141.859 19.0215 141.859 20.252V27H139.008V20.8477C139.008 20.1576 138.845 19.627 138.52 19.2559C138.194 18.8848 137.715 18.6992 137.084 18.6992C136.452 18.6992 135.945 18.9108 135.561 19.334C135.183 19.7572 134.994 20.3105 134.994 20.9941V27H132.143ZM147.553 27.166C146.244 27.166 145.206 26.681 144.438 25.7109C143.669 24.7409 143.285 23.4193 143.285 21.7461C143.285 20.0859 143.669 18.7741 144.438 17.8105C145.212 16.847 146.257 16.3652 147.572 16.3652C148.314 16.3652 148.965 16.5443 149.525 16.9023C150.092 17.2604 150.505 17.7357 150.766 18.3281H150.824V12.9082H153.676V27H150.863V25.2031H150.814C150.554 25.7956 150.134 26.2708 149.555 26.6289C148.975 26.987 148.308 27.166 147.553 27.166ZM148.52 18.6504C147.803 18.6504 147.237 18.9303 146.82 19.4902C146.41 20.0501 146.205 20.8086 146.205 21.7656C146.205 22.7292 146.41 23.4876 146.82 24.041C147.237 24.5944 147.803 24.8711 148.52 24.8711C149.229 24.8711 149.792 24.5944 150.209 24.041C150.632 23.4811 150.844 22.7227 150.844 21.7656C150.844 20.8151 150.632 20.0599 150.209 19.5C149.792 18.9336 149.229 18.6504 148.52 18.6504ZM155.629 27V16.5312H158.48V27H155.629ZM158.139 14.9492C157.846 15.2357 157.484 15.3789 157.055 15.3789C156.625 15.3789 156.264 15.2357 155.971 14.9492C155.678 14.6628 155.531 14.3145 155.531 13.9043C155.531 13.4876 155.678 13.1393 155.971 12.8594C156.264 12.5729 156.625 12.4297 157.055 12.4297C157.484 12.4297 157.846 12.5729 158.139 12.8594C158.432 13.1393 158.578 13.4876 158.578 13.9043C158.578 14.3145 158.432 14.6628 158.139 14.9492ZM160.385 27V16.5312H163.139V18.3965H163.197C163.484 17.7324 163.9 17.2246 164.447 16.873C165.001 16.515 165.674 16.3359 166.469 16.3359C167.628 16.3359 168.523 16.681 169.154 17.3711C169.786 18.0612 170.102 19.0215 170.102 20.252V27H167.25V20.8477C167.25 20.1576 167.087 19.627 166.762 19.2559C166.436 18.8848 165.958 18.6992 165.326 18.6992C164.695 18.6992 164.187 18.9108 163.803 19.334C163.425 19.7572 163.236 20.3105 163.236 20.9941V27H160.385ZM176.742 24.7734C177.458 24.7734 178.025 24.5065 178.441 23.9727C178.865 23.4323 179.076 22.6901 179.076 21.7461C179.076 20.8021 178.865 20.0501 178.441 19.4902C178.018 18.9303 177.452 18.6504 176.742 18.6504C176.039 18.6504 175.479 18.9303 175.062 19.4902C174.652 20.0436 174.447 20.7956 174.447 21.7461C174.447 22.6966 174.652 23.4388 175.062 23.9727C175.473 24.5065 176.033 24.7734 176.742 24.7734ZM176.693 30.9453C175.333 30.9453 174.213 30.6458 173.334 30.0469C172.462 29.4544 171.967 28.6862 171.85 27.7422H174.643C174.753 28.1068 175.001 28.3997 175.385 28.6211C175.775 28.849 176.238 28.9629 176.771 28.9629C177.494 28.9629 178.057 28.7773 178.461 28.4062C178.865 28.0417 179.066 27.5501 179.066 26.9316V25.0957H179.008C178.76 25.6621 178.347 26.1178 177.768 26.4629C177.188 26.8014 176.524 26.9707 175.775 26.9707C174.486 26.9707 173.454 26.502 172.68 25.5645C171.911 24.627 171.527 23.3477 171.527 21.7266C171.527 20.0664 171.911 18.7578 172.68 17.8008C173.448 16.8438 174.496 16.3652 175.824 16.3652C176.566 16.3652 177.221 16.5443 177.787 16.9023C178.354 17.2604 178.777 17.7454 179.057 18.3574H179.105V16.5312H181.918V26.8535C181.918 28.097 181.439 29.0898 180.482 29.832C179.532 30.5742 178.269 30.9453 176.693 30.9453Z" fill="#0F2137"/>
<g clip-path="url(#clip0)">
<path d="M20.2107 0.539326C16.7919 -0.368329 13.166 -0.132153 9.89685 1.21112C6.62773 2.55438 3.89871 4.92944 2.13429 7.96684C0.369871 11.0042 -0.331025 14.5337 0.140625 18.0062C0.612276 21.4787 2.23003 24.6996 4.74225 27.1678V27.1678L22.6286 9.4656C23.2974 8.80315 23.7782 7.97812 24.0229 7.07343C24.2675 6.16874 24.2673 5.21625 24.0223 4.31167C23.7773 3.40708 23.296 2.58226 22.627 1.92009C21.9579 1.25791 21.1246 0.781711 20.2107 0.539326V0.539326Z" fill="url(#paint0_linear)"/>
<path d="M6.78875 36.4601C10.2096 37.3707 13.8386 37.1359 17.1107 35.7925C20.3827 34.449 23.1142 32.0723 24.8796 29.0323C26.6451 25.9923 27.3455 22.4597 26.8717 18.9847C26.398 15.5097 24.7767 12.2873 22.2603 9.81934L4.37394 27.5338C3.70514 28.196 3.22416 29.0208 2.97933 29.9253C2.7345 30.8298 2.73443 31.7822 2.97913 32.6867C3.22383 33.5913 3.70469 34.4161 4.3734 35.0785C5.0421 35.7408 5.87512 36.2173 6.78875 36.4601V36.4601Z" fill="url(#paint1_linear)"/>
<path style="mix-blend-mode:multiply" d="M22.2603 9.81934L4.37394 27.5338C3.70514 28.196 3.22416 29.0208 2.97933 29.9253C2.7345 30.8298 2.73443 31.7822 2.97913 32.6867C3.22383 33.5913 3.70469 34.4161 4.3734 35.0785C5.0421 35.7408 5.87512 36.2173 6.78875 36.4601C8.70142 36.965 10.6917 37.1169 12.6599 36.9081C4.81723 29.4393 22.2603 9.81934 22.2603 9.81934Z" fill="url(#paint2_linear)"/>
<g style="mix-blend-mode:multiply">
<path style="mix-blend-mode:multiply" d="M6.46017 36.3617C3.92136 28.58 19.1697 12.9092 21.8604 10.2273L4.37395 27.5336C3.72563 28.1755 3.25344 28.9705 3.00202 29.8433C2.7506 30.7162 2.72826 31.6381 2.93711 32.5219C3.14597 33.4057 3.57912 34.2222 4.19559 34.8941C4.81207 35.566 5.5915 36.0711 6.46017 36.3617V36.3617Z" fill="url(#paint3_linear)"/>
<path style="mix-blend-mode:multiply" d="M22.2014 9.88984C22.22 9.86941 22.2396 9.84995 22.2603 9.83154V9.83154L22.2014 9.88984Z" fill="url(#paint4_linear)"/>
</g>
<path style="mix-blend-mode:screen" d="M23.9404 7.3645L4.72113 27.1563L22.6292 9.46643C23.2273 8.87775 23.6766 8.15757 23.9404 7.3645V7.3645Z" fill="url(#paint5_radial)"/>
</g>
<defs>
<linearGradient id="paint0_linear" x1="16.4102" y1="-16.6934" x2="10.5876" y2="20.6654" gradientUnits="userSpaceOnUse">
<stop stop-color="#0096D9"/>
<stop offset="1" stop-color="#00C198"/>
</linearGradient>
<linearGradient id="paint1_linear" x1="9.13537" y1="13.6181" x2="18.5045" y2="32.4248" gradientUnits="userSpaceOnUse">
<stop stop-color="#002DD9"/>
<stop offset="1" stop-color="#00B2AB"/>
</linearGradient>
<linearGradient id="paint2_linear" x1="23.8071" y1="-3.42432" x2="6.08252" y2="38.1714" gradientUnits="userSpaceOnUse">
<stop stop-color="#3482C0"/>
<stop offset="0.45" stop-color="#96BEDE"/>
<stop offset="0.83" stop-color="#E1EDF6"/>
<stop offset="1" stop-color="white"/>
</linearGradient>
<linearGradient id="paint3_linear" x1="1361.37" y1="132.275" x2="-132.261" y2="2238.51" gradientUnits="userSpaceOnUse">
<stop stop-color="#3482C0"/>
<stop offset="0.45" stop-color="#96BEDE"/>
<stop offset="0.83" stop-color="#E1EDF6"/>
<stop offset="1" stop-color="white"/>
</linearGradient>
<linearGradient id="paint4_linear" x1="25.6732" y1="3.26808" x2="10.5951" y2="32.7125" gradientUnits="userSpaceOnUse">
<stop stop-color="#569FA1"/>
<stop offset="0.36" stop-color="#97C4C5"/>
<stop offset="0.8" stop-color="#E2EEEF"/>
<stop offset="1" stop-color="white"/>
</linearGradient>
<radialGradient id="paint5_radial" cx="0" cy="0" r="1" gradientUnits="userSpaceOnUse" gradientTransform="translate(21.5938 32.382) scale(27.8184 27.5367)">
<stop stop-color="#FFFF00"/>
<stop offset="1"/>
</radialGradient>
<clipPath id="clip0">
<rect width="27" height="37" fill="white"/>
</clipPath>
</defs>
</svg>
